<?xml version="1.0" standalone="no"?>
<!DOCTYPE svg PUBLIC "-//W3C//DTD SVG 20010904//EN"
 "http://www.w3.org/TR/2001/REC-SVG-20010904/DTD/svg10.dtd">
<svg version="1.0" xmlns="http://www.w3.org/2000/svg"
 width="800.000000pt" height="800.000000pt" viewBox="0 0 800.000000 800.000000"
 preserveAspectRatio="xMidYMid meet">
<metadata>
Created by potrace 1.14, written by Peter Selinger 2001-2017
</metadata>
<g transform="translate(0.000000,800.000000) scale(0.100000,-0.100000)"
fill="#000000" stroke="none">
<path d="M0 4000 l0 -4000 4000 0 4000 0 0 4000 0 4000 -4000 0 -4000 0 0
-4000z m4031 2641 c13 -10 31 -21 39 -24 12 -4 11 -6 -3 -6 -10 -1 -28 8 -40
19 -12 11 -27 18 -35 15 -7 -2 -10 0 -7 5 9 14 19 12 46 -9z m138 -77 c20 -11
236 -136 481 -276 491 -282 922 -530 1280 -736 129 -75 268 -154 308 -176 l73
-41 -2 -1332 c-2 -1280 -3 -1333 -21 -1339 -24 -7 -43 5 -29 19 6 6 11 18 10
27 0 10 -2 11 -6 2 -2 -6 -8 -10 -12 -7 -10 5 -6 -39 5 -57 4 -7 4 -10 0 -6
-5 4 -18 -2 -30 -14 -11 -11 -41 -30 -66 -42 -58 -29 -91 -48 -108 -64 -17
-15 -25 -16 -16 -1 4 7 1 10 -7 7 -8 -3 -14 -10 -14 -16 0 -7 -3 -11 -6 -9 -4
1 -15 -5 -25 -14 -25 -22 -250 -149 -264 -149 -5 0 -10 -5 -10 -11 0 -6 -7 -8
-16 -5 -8 3 -13 2 -10 -2 3 -5 -35 -31 -84 -59 -66 -37 -92 -48 -105 -41 -9 5
-24 6 -33 2 -9 -4 -21 -6 -27 -5 -5 1 -2 -6 7 -15 14 -15 20 -16 30 -5 11 10
9 11 -7 5 -16 -5 -18 -4 -8 6 6 7 19 10 29 6 16 -6 14 -10 -11 -27 -44 -30
-77 -44 -114 -47 -8 -1 -11 -5 -8 -9 9 -9 -52 -45 -64 -37 -5 3 -8 0 -7 -8 2
-7 -5 -12 -14 -12 -10 1 -16 -1 -14 -5 3 -4 -12 -16 -32 -26 -20 -11 -54 -30
-76 -43 -21 -13 -35 -18 -31 -10 3 7 0 5 -8 -4 -8 -10 -19 -18 -26 -18 -6 0
-11 -5 -11 -11 0 -5 -4 -8 -8 -5 -5 3 -18 -3 -28 -12 -19 -18 -268 -162 -279
-162 -3 0 -3 5 1 12 4 7 3 8 -5 4 -6 -4 -9 -11 -6 -16 8 -12 -33 -33 -47 -24
-7 4 -8 3 -4 -4 10 -17 -28 -34 -43 -19 -10 9 -11 9 -6 -3 4 -11 -13 -26 -57
-52 -35 -19 -68 -33 -75 -31 -20 8 -4 25 16 18 11 -3 24 2 32 12 13 16 12 17
-3 5 -9 -8 -22 -11 -28 -7 -6 3 -24 -5 -41 -19 -17 -14 -25 -26 -19 -26 6 0 8
-4 5 -10 -9 -14 -124 -80 -140 -80 -7 0 -15 -4 -17 -9 -3 -9 -136 -91 -147
-91 -3 0 0 4 7 9 11 7 11 9 -2 14 -9 4 -15 3 -15 -1 4 -23 -3 -33 -18 -28 -22
7 -50 -8 -34 -18 6 -4 11 -2 11 3 0 6 5 11 11 11 19 0 -3 -22 -40 -39 -20 -9
-49 -25 -64 -35 -28 -19 -29 -19 -55 1 -15 11 -37 23 -50 27 -12 4 -20 12 -17
17 3 5 0 6 -8 3 -8 -3 -20 2 -27 11 -7 8 -17 15 -22 15 -5 0 -53 25 -106 56
-53 31 -263 152 -467 269 -203 116 -428 246 -500 287 -71 41 -220 127 -330
190 -110 63 -292 168 -405 233 -113 66 -238 137 -278 159 l-73 41 5 1260 c3
723 9 1279 14 1305 7 32 10 38 12 20 l2 -25 8 25 8 25 1 -27 c1 -27 1 -27 48
18 34 34 52 45 69 41 13 -2 21 0 18 4 -3 5 2 9 10 9 8 0 22 7 30 16 9 8 16 12
16 9 0 -4 16 5 35 19 27 21 35 23 35 12 0 -24 18 -19 45 12 30 34 30 36 3 51
-21 10 -20 11 10 6 21 -3 42 1 57 11 21 14 41 21 68 23 4 1 12 12 17 25 7 19
14 22 34 19 20 -4 31 1 47 21 11 14 26 26 33 26 6 0 18 6 24 13 7 6 16 12 20
13 32 2 73 19 88 35 9 10 21 19 27 19 5 0 26 13 46 29 23 18 45 27 61 25 16
-3 20 -1 12 4 -10 7 -10 11 3 22 8 7 15 20 15 30 0 23 8 29 31 23 16 -5 18 -8
7 -14 -10 -7 -9 -9 3 -9 9 0 20 8 23 17 6 14 9 15 15 4 7 -10 12 -8 25 10 10
15 16 18 16 9 1 -10 9 -5 25 13 13 15 34 27 46 27 11 0 30 12 41 26 15 19 28
25 45 21 16 -3 23 0 19 8 -5 15 43 53 75 58 41 7 62 19 49 27 -17 10 -3 31 15
23 9 -3 24 5 36 21 11 14 26 26 32 26 18 1 57 36 57 52 0 8 7 15 16 15 10 0
14 -7 11 -19 -6 -23 8 -23 41 1 15 10 35 17 44 16 14 -3 78 55 70 63 -1 1 -2
10 -2 20 0 14 2 15 10 2 7 -12 12 -11 30 5 11 10 18 25 16 32 -3 7 0 13 6 13
7 0 4 6 -5 13 -16 11 -15 12 7 12 13 0 22 -5 19 -11 -2 -6 4 -14 13 -18 17 -7
38 15 39 39 0 5 8 11 18 13 16 3 22 -12 18 -46 -3 -16 28 -2 49 22 7 9 17 16
22 16 6 0 29 15 51 33 23 17 50 37 62 42 11 6 20 16 20 22 0 7 6 18 14 25 11
10 14 10 18 1 7 -18 38 -16 54 4 12 15 12 16 -1 8 -13 -8 -13 -7 0 11 8 10 15
20 16 22 1 2 9 -4 17 -13 14 -13 17 -13 35 10 11 14 29 25 40 25 11 0 34 14
51 31 35 35 37 39 16 39 -9 0 -12 6 -9 15 4 8 15 15 25 15 10 0 19 5 19 11 0
7 11 8 29 4 17 -3 32 -2 36 4 4 8 13 7 27 -1 12 -7 37 -22 57 -34z m-334 -36
c-2 -17 -8 -22 -24 -21 -14 2 -20 -1 -15 -8 4 -8 0 -8 -15 0 -15 9 -27 9 -41
1 -33 -18 -23 -3 13 17 27 17 35 18 45 6 7 -7 18 -13 24 -13 6 0 3 9 -7 20
-18 20 -18 21 0 14 14 -6 16 -4 10 6 -5 8 -4 11 2 7 5 -3 9 -16 8 -29z m-160
-97 c1 -25 -2 -28 -17 -20 -23 12 -24 20 -1 12 11 -4 14 -3 9 5 -4 7 -4 17 -1
22 9 15 10 13 10 -19z m-113 -36 c-17 -14 -33 -25 -37 -25 -5 0 5 11 21 25 16
14 33 25 37 25 5 0 -5 -11 -21 -25z m-41 -42 c13 -16 12 -17 -3 -5 -13 10 -22
11 -40 2 -22 -11 -22 -10 -4 4 25 20 30 20 47 -1z m53 -8 c11 -8 17 -17 14
-21 -4 -3 -16 4 -27 15 -24 24 -15 28 13 6z m-69 -23 c-3 -3 -11 0 -18 7 -9
10 -8 11 6 5 10 -3 15 -9 12 -12z m-80 -2 c-3 -5 -12 -10 -18 -10 -7 0 -6 4 3
10 19 12 23 12 15 0z m10 -20 c-3 -5 -12 -10 -18 -10 -7 0 -6 4 3 10 19 12 23
12 15 0z m-59 -12 c-18 -10 -18 -12 -2 -23 15 -11 15 -13 1 -19 -9 -3 -13 -2
-10 3 3 5 1 13 -5 16 -13 8 6 35 24 35 6 0 2 -6 -8 -12z m-42 -26 c2 -4 -4 -8
-14 -8 -10 0 -16 4 -14 8 3 4 9 8 14 8 5 0 11 -4 14 -8z m-149 -82 c-3 -5 -12
-10 -18 -10 -7 0 -6 4 3 10 19 12 23 12 15 0z m92 -2 c0 -7 -12 -14 -26 -15
l-26 -1 25 14 c14 7 25 13 26 14 0 0 1 -6 1 -12z m-162 -36 c-18 -15 -85 -54
-85 -48 0 3 19 16 43 30 43 26 59 33 42 18z m-15 -42 c-24 -15 -36 -11 -14 4
10 8 21 12 24 10 2 -3 -2 -9 -10 -14z m-80 -14 c0 -2 -7 -7 -16 -10 -8 -3 -12
-2 -9 4 6 10 25 14 25 6z m0 -31 c-7 -8 -17 -15 -23 -15 -6 0 -2 7 9 15 25 19
30 19 14 0z m-78 -18 c-24 -13 -41 -25 -38 -28 3 -2 -4 -5 -14 -5 -11 0 -20 1
-20 3 0 5 95 52 105 52 6 0 -9 -10 -33 -22z m93 -16 c-3 -6 -14 -11 -23 -11
-15 1 -15 2 2 15 21 16 32 13 21 -4z m-75 -1 c-8 -5 -19 -10 -25 -10 -5 0 -3
5 5 10 8 5 20 10 25 10 6 0 3 -5 -5 -10z m-120 -40 c-14 -11 -29 -20 -35 -20
-5 0 4 9 20 20 38 25 48 25 15 0z m24 -15 c-10 -8 -23 -15 -28 -15 -6 0 -1 7
10 15 10 8 23 15 28 15 6 0 1 -7 -10 -15z m-77 -17 c0 -7 -12 -14 -26 -15
l-26 -1 25 14 c14 7 25 13 26 14 0 0 1 -6 1 -12z m83 -23 c10 -12 9 -15 -4
-15 -11 0 -14 5 -10 12 5 8 0 9 -14 6 -12 -4 -20 -2 -16 3 8 14 30 11 44 -6z
m-160 -20 c-13 -14 -31 -25 -39 -24 -13 0 -13 2 -1 6 8 3 23 14 34 25 29 27
33 22 6 -7z m7 -50 c0 -17 0 -17 -22 -9 -13 5 -14 8 -3 15 19 12 25 11 25 -6z
m-161 -41 c-3 -21 -33 -39 -33 -20 0 8 7 12 14 9 8 -3 13 -2 12 3 -2 13 0 24
5 24 2 0 3 -7 2 -16z m-84 -49 c-16 -7 -33 -18 -36 -24 -4 -6 -15 -11 -24 -10
-14 0 -13 2 3 9 11 5 31 18 45 29 13 11 29 17 33 14 5 -3 -4 -11 -21 -18z
m-12 -44 c0 -5 -7 -12 -16 -15 -14 -5 -15 -4 -4 9 14 17 20 19 20 6z m-100
-16 c-7 -9 -15 -13 -19 -10 -3 3 1 10 9 15 21 14 24 12 10 -5z m-45 -25 c-3
-5 -12 -10 -18 -10 -7 0 -6 4 3 10 19 12 23 12 15 0z m-55 -34 c0 -2 -7 -7
-16 -10 -8 -3 -12 -2 -9 4 6 10 25 14 25 6z m145 -24 c-3 -3 -11 0 -18 7 -9
10 -8 11 6 5 10 -3 15 -9 12 -12z m-180 -2 c3 -5 1 -10 -4 -10 -6 0 -11 5 -11
10 0 6 2 10 4 10 3 0 8 -4 11 -10z m-69 -45 c-2 -26 -26 -61 -26 -37 0 7 5 12
12 12 6 0 3 7 -8 15 -16 13 -17 14 -1 9 10 -4 17 -3 16 2 -2 12 0 24 4 24 2 0
3 -11 3 -25z m-64 -32 c-6 -2 -10 -8 -8 -11 2 -4 -7 -7 -20 -7 -22 0 -23 1 -7
13 9 6 24 12 32 11 11 0 12 -2 3 -6z m-76 -48 c-10 -8 -23 -12 -28 -9 -14 9 1
24 17 17 8 -3 15 1 15 8 0 7 3 9 7 5 5 -4 -1 -14 -11 -21z m51 0 c-4 -8 -2
-17 3 -20 6 -4 10 -11 10 -17 0 -7 -5 -6 -15 2 -8 7 -23 9 -32 6 -12 -5 -10 1
7 17 30 30 34 32 27 12z m-154 -51 c-33 -17 -44 -34 -20 -34 8 0 7 -4 -3 -10
-8 -5 -19 -10 -25 -10 -5 0 -3 5 5 10 12 8 12 10 -5 10 -15 0 -12 5 15 25 19
13 42 24 50 24 8 0 0 -7 -17 -15z m-85 -48 c-10 -7 -16 -15 -13 -17 2 -3 -5
-5 -15 -5 -26 0 -25 3 8 20 34 19 43 20 20 2z m89 -13 c-1 -13 -10 -18 -31
-19 l-31 0 28 10 c15 5 27 13 27 18 0 4 2 8 4 8 3 0 4 -8 3 -17z m-174 -62
c-4 -4 -12 -11 -17 -16 -6 -6 -7 -3 -3 8 4 9 2 17 -3 17 -6 0 -10 -5 -10 -12
0 -6 -3 -8 -6 -5 -4 4 -1 13 6 22 10 12 16 13 27 4 8 -7 10 -15 6 -18z m12
-31 c3 -5 1 -10 -4 -10 -6 0 -11 5 -11 10 0 6 2 10 4 10 3 0 8 -4 11 -10z
m2749 -3661 c-3 -5 -10 -7 -15 -3 -5 3 -7 10 -3 15 3 5 10 7 15 3 5 -3 7 -10
3 -15z"/>
<path d="M4085 6590 c-3 -5 -18 -10 -33 -10 -15 0 -34 -5 -42 -10 -11 -7 -1
-9 32 -7 25 1 44 4 42 6 -2 2 1 10 7 18 6 7 9 13 6 13 -3 0 -9 -4 -12 -10z"/>
<path d="M4105 6580 c-3 -5 -1 -10 4 -10 6 0 11 5 11 10 0 6 -2 10 -4 10 -3 0
-8 -4 -11 -10z"/>
<path d="M4163 6545 c0 -7 6 -11 14 -8 7 3 13 6 13 8 0 2 -6 5 -13 8 -8 3 -14
-1 -14 -8z"/>
<path d="M4174 6514 c-18 -14 -18 -15 4 -4 12 6 22 13 22 15 0 8 -5 6 -26 -11z"/>
<path d="M3962 6344 c-12 -8 -27 -12 -34 -8 -7 4 -8 3 -4 -4 8 -14 -30 -36
-46 -26 -6 4 -8 3 -5 -3 4 -5 -6 -16 -21 -24 -15 -8 -67 -37 -115 -66 -175
-105 -248 -144 -259 -137 -7 4 -8 3 -4 -4 4 -7 3 -12 -3 -12 -5 0 -13 5 -16
10 -3 6 -11 10 -18 10 -6 0 -3 -6 7 -13 17 -13 9 -20 -90 -77 -412 -238 -513
-295 -542 -311 -18 -9 -39 -23 -47 -29 -12 -10 -19 -10 -32 1 -16 13 -17 12
-5 -3 11 -14 10 -17 -10 -24 -13 -3 -25 -10 -28 -13 -13 -17 -83 -51 -92 -45
-6 4 -8 3 -5 -2 3 -6 -3 -16 -15 -23 -16 -10 -19 -10 -12 1 4 7 -7 1 -25 -14
-32 -28 -58 -37 -46 -18 3 6 -1 7 -10 3 -12 -4 -13 -8 -4 -13 8 -6 5 -11 -10
-20 -18 -9 -26 -9 -39 2 -15 11 -16 11 -4 -3 11 -14 8 -20 -23 -38 -19 -11
-41 -19 -48 -17 -6 1 -8 1 -4 -2 5 -2 -30 -26 -77 -54 -48 -27 -91 -46 -97
-42 -8 4 -9 3 -5 -5 4 -6 0 -14 -11 -18 -10 -4 -35 -17 -56 -30 -21 -13 -41
-22 -45 -19 -5 3 -14 0 -22 -6 -12 -8 -12 -9 3 -4 31 10 18 -2 -38 -34 l-55
-31 6 -1177 c6 -1072 8 -1178 23 -1190 9 -7 122 -74 251 -149 129 -75 291
-168 360 -208 69 -40 238 -138 375 -218 138 -79 423 -245 635 -368 211 -123
390 -225 396 -227 7 -2 35 11 63 28 28 17 56 28 62 24 7 -4 9 -3 6 3 -3 5 83
60 191 123 108 63 266 154 350 202 84 50 157 86 164 82 6 -4 8 -3 5 4 -4 6 21
26 60 48 38 20 175 99 305 175 131 77 240 139 243 139 3 0 34 17 68 39 63 39
258 152 312 181 17 9 74 42 127 74 l96 58 -5 1176 c-5 1074 -7 1178 -22 1190
-9 7 -106 65 -216 129 -621 360 -990 573 -1317 763 -208 120 -365 217 -361
223 3 6 1 7 -5 3 -16 -10 -54 12 -46 26 4 7 2 8 -5 4 -6 -4 -23 -1 -36 8 -30
20 -45 20 -73 0z m-102 -393 c0 -5 -16 -15 -35 -21 -19 -6 -35 -18 -35 -25 0
-20 -21 -30 -30 -15 -5 9 -9 9 -14 1 -4 -6 -2 -11 5 -11 8 0 7 -5 -2 -17 -13
-15 -12 -15 11 -3 14 8 30 13 36 12 7 -1 15 9 18 23 4 14 11 25 17 25 6 0 7
-5 4 -10 -4 -6 -3 -19 1 -28 6 -13 9 -9 14 18 16 91 24 -1871 13 -3108 l-6
-751 -31 16 c-17 8 -39 23 -50 32 -10 9 -21 15 -25 15 -15 -3 -30 9 -24 19 3
5 1 7 -5 3 -6 -3 -44 13 -84 37 l-73 43 -5 1304 -5 1305 -149 -515 c-81 -283
-171 -595 -199 -692 -28 -98 -53 -178 -56 -178 -4 0 -42 62 -85 138 -44 75
-111 191 -149 257 -38 66 -130 226 -204 355 -74 129 -145 251 -157 270 l-21
35 -5 -841 -5 -841 -145 83 c-119 68 -146 88 -152 111 -8 30 -9 1947 -1 2000
5 29 17 38 129 102 68 39 127 71 131 71 5 0 52 -78 107 -173 54 -95 120 -208
146 -252 25 -44 105 -180 176 -303 108 -186 130 -219 136 -200 18 55 412 1409
425 1460 12 45 21 59 42 67 14 6 49 24 76 41 86 51 98 56 103 42 2 -6 9 -12
15 -12 8 0 7 4 -1 12 -7 7 -12 15 -12 18 0 10 53 34 68 31 6 -1 12 3 12 8 0 6
17 19 38 30 44 24 42 23 42 12z m287 -13 c-3 -8 -6 -5 -6 6 -1 11 2 17 5 13 3
-3 4 -12 1 -19z m53 -14 c0 -2 -9 0 -20 6 -11 6 -20 13 -20 16 0 2 9 0 20 -6
11 -6 20 -13 20 -16z m-42 -132 c2 14 16 17 88 20 47 2 88 0 91 -4 2 -5 -1 -8
-8 -8 -7 0 -10 -2 -7 -5 3 -3 15 -2 27 3 l22 8 -21 19 c-21 19 -37 25 -77 28
-27 2 -38 13 -22 23 8 4 10 3 5 -4 -9 -15 -1 -15 26 -1 15 8 19 8 14 0 -4 -7
1 -11 12 -11 11 0 30 -8 43 -18 13 -10 41 -27 62 -37 50 -26 79 -53 71 -67 -4
-7 -1 -7 12 0 15 8 33 2 84 -27 36 -21 318 -183 626 -360 424 -243 563 -327
568 -344 3 -12 6 -470 6 -1018 0 -781 -3 -999 -12 -1011 -7 -9 -105 -69 -218
-133 -113 -65 -279 -161 -370 -213 -801 -463 -1032 -594 -1038 -588 -2 3 -7
531 -10 1173 -5 1132 7 2785 19 2633 3 -41 6 -67 7 -58z"/>
<path d="M3661 5833 c-7 -8 -11 -16 -8 -19 2 -2 10 2 17 11 17 20 9 27 -9 8z"/>
<path d="M3607 2199 c7 -7 15 -10 18 -7 3 3 -2 9 -12 12 -14 6 -15 5 -6 -5z"/>
<path d="M3795 2100 c3 -5 8 -10 11 -10 2 0 4 5 4 10 0 6 -5 10 -11 10 -5 0
-7 -4 -4 -10z"/>
<path d="M4386 5802 c-3 -5 8 -13 25 -19 35 -14 37 -10 5 11 -14 9 -27 12 -30
8z"/>
<path d="M4502 5721 c-11 -7 -11 -9 0 -14 9 -3 15 1 15 9 0 8 -1 14 -1 14 -1
0 -7 -4 -14 -9z"/>
<path d="M4440 4000 c0 -793 4 -1440 8 -1438 5 1 236 135 515 297 l507 293 0
848 0 848 -507 293 c-278 162 -510 296 -515 297 -4 2 -8 -645 -8 -1438z"/>
<path d="M3770 6290 c-8 -5 -12 -12 -9 -15 4 -3 12 1 19 10 14 17 11 19 -10 5z"/>
<path d="M3480 6249 c0 -5 5 -7 10 -4 6 3 10 8 10 11 0 2 -4 4 -10 4 -5 0 -10
-5 -10 -11z"/>
<path d="M3686 6218 c2 -4 -4 -11 -13 -17 -10 -6 -13 -10 -8 -10 6 -1 20 7 33
17 21 17 22 18 3 18 -11 0 -18 -4 -15 -8z"/>
<path d="M3541 6151 c-8 -5 -16 -17 -17 -25 -1 -9 2 -14 7 -10 5 3 6 10 3 16
-4 6 1 8 14 4 11 -4 23 -2 27 3 4 7 -1 8 -11 4 -12 -4 -15 -3 -10 5 9 14 6 15
-13 3z"/>
<path d="M3363 6048 c-1 -11 1 -16 5 -12 4 5 11 12 15 15 5 3 2 9 -5 12 -9 3
-14 -3 -15 -15z"/>
<path d="M3279 5993 c-1 -5 -1 -11 0 -15 1 -11 -6 -10 -32 3 -21 10 -21 10 -2
-6 10 -8 23 -14 29 -12 9 3 18 37 10 37 -2 0 -5 -3 -5 -7z"/>
<path d="M3225 5940 c-3 -6 1 -7 9 -4 18 7 21 14 7 14 -6 0 -13 -4 -16 -10z"/>
<path d="M3110 5910 c0 -5 5 -10 11 -10 5 0 7 5 4 10 -3 6 -8 10 -11 10 -2 0
-4 -4 -4 -10z"/>
<path d="M3139 5883 c-13 -17 -13 -17 6 -3 11 8 22 16 24 17 2 2 0 3 -6 3 -6
0 -17 -8 -24 -17z"/>
<path d="M2965 5830 c-3 -6 1 -7 9 -4 18 7 21 14 7 14 -6 0 -13 -4 -16 -10z"/>
<path d="M2807 5699 c7 -7 15 -10 18 -7 3 3 -2 9 -12 12 -14 6 -15 5 -6 -5z"/>
<path d="M2559 5573 c-13 -16 -12 -17 4 -4 16 13 21 21 13 21 -2 0 -10 -8 -17
-17z"/>
<path d="M2403 5465 c0 -8 4 -12 9 -9 5 3 6 10 3 15 -9 13 -12 11 -12 -6z"/>
<path d="M2278 5413 c7 -3 16 -2 19 1 4 3 -2 6 -13 5 -11 0 -14 -3 -6 -6z"/>
<path d="M1926 5143 c-6 -14 -5 -15 5 -6 7 7 10 15 7 18 -3 3 -9 -2 -12 -12z"/>
<path d="M6275 2680 c-3 -5 -1 -10 4 -10 6 0 11 5 11 10 0 6 -2 10 -4 10 -3 0
-8 -4 -11 -10z"/>
<path d="M6111 2616 c-9 -11 -8 -15 5 -20 24 -9 31 -7 14 4 -13 9 -13 11 0 20
8 5 10 10 4 10 -6 0 -17 -6 -23 -14z"/>
<path d="M6185 2620 c-4 -6 -10 -8 -15 -5 -5 3 -11 1 -15 -4 -7 -13 35 -5 49
9 7 7 6 10 -1 10 -7 0 -15 -5 -18 -10z"/>
<path d="M6080 2565 c-7 -8 -9 -15 -6 -15 4 0 14 7 22 15 9 8 11 15 6 15 -5 0
-15 -7 -22 -15z"/>
<path d="M5980 2553 c-39 -7 -43 -18 -6 -18 19 0 33 5 33 13 0 6 -1 11 -1 11
-1 -1 -12 -4 -26 -6z"/>
<path d="M5921 2514 c0 -11 3 -14 6 -6 3 7 2 16 -1 19 -3 4 -6 -2 -5 -13z"/>
<path d="M5957 2513 c-14 -13 -7 -25 8 -13 8 7 22 10 30 6 9 -3 13 -2 10 4 -7
11 -38 13 -48 3z"/>
<path d="M5844 2435 c0 -13 4 -21 8 -19 5 3 5 10 2 16 -5 7 -1 9 9 5 23 -9 22
0 -1 12 -15 8 -18 6 -18 -14z"/>
<path d="M5700 2366 c0 -2 7 -7 16 -10 8 -3 12 -2 9 4 -6 10 -25 14 -25 6z"/>
<path d="M5628 2308 c-2 -6 -15 -13 -28 -15 -13 -2 -31 -10 -40 -18 -9 -8 -23
-15 -30 -15 -7 0 -10 -3 -7 -6 3 -4 23 2 44 12 21 10 44 19 52 20 8 2 21 10
30 18 14 15 14 16 -1 16 -9 0 -18 -5 -20 -12z"/>
<path d="M5300 2156 c0 -2 9 -6 20 -9 11 -3 18 -1 14 4 -5 9 -34 13 -34 5z"/>
<path d="M5303 2126 c0 -8 6 -12 14 -9 7 3 10 9 7 14 -8 14 -21 11 -21 -5z"/>
<path d="M5203 2061 c10 -12 8 -13 -12 -8 -18 4 -21 3 -13 -5 9 -9 18 -8 36 2
28 15 26 30 -4 27 -15 -1 -17 -4 -7 -16z"/>
<path d="M5123 2049 c-1 -12 3 -16 13 -12 18 6 18 19 1 26 -7 3 -13 -3 -14
-14z"/>
<path d="M5140 2025 c-14 -8 -20 -14 -14 -15 5 0 19 7 30 15 24 18 16 19 -16
0z"/>
<path d="M5035 1990 c-3 -5 0 -10 7 -10 8 -1 6 -6 -6 -15 -11 -8 -16 -15 -10
-15 14 0 71 49 57 50 -7 0 -13 -4 -13 -10 0 -5 -5 -10 -11 -10 -5 0 -7 5 -4
10 3 6 2 10 -4 10 -5 0 -13 -4 -16 -10z"/>
<path d="M4960 1936 c0 -8 4 -17 9 -20 5 -4 7 3 4 14 -6 23 -13 26 -13 6z"/>
<path d="M4995 1940 c-3 -5 -1 -10 4 -10 6 0 11 5 11 10 0 6 -2 10 -4 10 -3 0
-8 -4 -11 -10z"/>
<path d="M4883 1903 c0 -9 6 -9 21 -1 30 15 30 16 3 14 -13 0 -24 -6 -24 -13z"/>
<path d="M4917 1894 c-16 -9 -27 -18 -24 -20 3 -3 20 4 38 15 39 24 28 28 -14
5z"/>
<path d="M4725 1830 c-4 -6 1 -7 12 -4 16 5 16 4 -1 -10 -24 -19 -8 -21 17 -2
16 12 16 14 1 20 -21 8 -22 8 -29 -4z"/>
<path d="M4795 1823 c-4 -11 0 -11 18 -2 31 16 32 18 8 16 -11 -1 -23 -7 -26
-14z"/>
<path d="M4600 1738 c14 -6 20 -12 13 -15 -7 -2 -20 0 -30 6 -15 7 -19 6 -19
-9 0 -11 5 -16 15 -12 9 3 12 1 7 -6 -11 -19 9 -14 27 6 19 20 6 43 -22 41 -9
0 -5 -5 9 -11z"/>
<path d="M4435 1620 c-3 -5 -1 -10 4 -10 6 0 11 5 11 10 0 6 -2 10 -4 10 -3 0
-8 -4 -11 -10z"/>
<path d="M4325 1589 c-3 -4 4 -13 16 -19 17 -10 20 -9 14 1 -6 9 -3 11 9 6 11
-5 15 -3 10 5 -5 8 -1 9 12 4 10 -4 15 -4 11 1 -11 11 -66 13 -72 2z"/>
<path d="M4228 1498 c-21 -21 -11 -24 15 -4 10 8 15 16 10 18 -4 3 -16 -3 -25
-14z"/>
<path d="M4166 1501 c-4 -5 2 -15 13 -20 16 -9 19 -8 17 6 -3 20 -21 28 -30
14z"/>
<path d="M3965 1380 c3 -5 11 -10 16 -10 6 0 7 5 4 10 -3 6 -11 10 -16 10 -6
0 -7 -4 -4 -10z"/>
<path d="M4015 1380 c-3 -6 1 -7 9 -4 18 7 21 14 7 14 -6 0 -13 -4 -16 -10z"/>
</g>
</svg>
